<mxfile host="65bd71144e">
    <diagram id="-_rkfTHiXJ4ScaECmHU-" name="Page-1">
        <mxGraphModel dx="961" dy="851" grid="1" gridSize="10" guides="1" tooltips="1" connect="1" arrows="1" fold="1" page="1" pageScale="1" pageWidth="1654" pageHeight="1169" math="0" shadow="0">
            <root>
                <mxCell id="0"/>
                <mxCell id="1" parent="0"/>
                <mxCell id="29" value="" style="whiteSpace=wrap;html=1;fillColor=#A085BA;" vertex="1" parent="1">
                    <mxGeometry x="340" y="565" width="140" height="115" as="geometry"/>
                </mxCell>
                <mxCell id="30" value="" style="whiteSpace=wrap;html=1;fillColor=#A085BA;" vertex="1" parent="1">
                    <mxGeometry x="1160" y="565" width="140" height="115" as="geometry"/>
                </mxCell>
                <mxCell id="27" value="" style="whiteSpace=wrap;html=1;fillColor=#A085BA;" vertex="1" parent="1">
                    <mxGeometry x="839" y="564" width="280" height="115" as="geometry"/>
                </mxCell>
                <mxCell id="25" value="" style="whiteSpace=wrap;html=1;fillColor=#A085BA;" vertex="1" parent="1">
                    <mxGeometry x="519" y="565" width="280" height="115" as="geometry"/>
                </mxCell>
                <mxCell id="2" value="" style="whiteSpace=wrap;html=1;opacity=50;" vertex="1" parent="1">
                    <mxGeometry x="362" y="525" width="280" height="120" as="geometry"/>
                </mxCell>
                <mxCell id="3" value="IP_A1&lt;br&gt;10.241.115.1" style="text;html=1;align=center;verticalAlign=middle;resizable=0;points=[];autosize=1;strokeColor=none;fillColor=none;" vertex="1" parent="1">
                    <mxGeometry x="382" y="565" width="90" height="40" as="geometry"/>
                </mxCell>
                <mxCell id="12" value="IP_A2&lt;br&gt;10.241.115.153" style="text;html=1;align=center;verticalAlign=middle;resizable=0;points=[];autosize=1;strokeColor=none;fillColor=none;" vertex="1" parent="1">
                    <mxGeometry x="522" y="565" width="110" height="40" as="geometry"/>
                </mxCell>
                <mxCell id="13" value="IP_A0&lt;br&gt;10.241.115.0/24" style="text;html=1;align=center;verticalAlign=middle;resizable=0;points=[];autosize=1;strokeColor=none;fillColor=none;fontStyle=0" vertex="1" parent="1">
                    <mxGeometry x="447" y="530" width="110" height="40" as="geometry"/>
                </mxCell>
                <mxCell id="14" value="" style="whiteSpace=wrap;html=1;opacity=50;" vertex="1" parent="1">
                    <mxGeometry x="682" y="525" width="280" height="120" as="geometry"/>
                </mxCell>
                <mxCell id="15" value="IP_B1&lt;br&gt;172.16.0.1" style="text;html=1;align=center;verticalAlign=middle;resizable=0;points=[];autosize=1;strokeColor=none;fillColor=none;" vertex="1" parent="1">
                    <mxGeometry x="707" y="565" width="80" height="40" as="geometry"/>
                </mxCell>
                <mxCell id="16" value="IP_B2&lt;br&gt;172.16.0.8" style="text;html=1;align=center;verticalAlign=middle;resizable=0;points=[];autosize=1;strokeColor=none;fillColor=none;" vertex="1" parent="1">
                    <mxGeometry x="857" y="565" width="80" height="40" as="geometry"/>
                </mxCell>
                <mxCell id="17" value="IP_B0&lt;br&gt;172.16.0.0/24" style="text;html=1;align=center;verticalAlign=middle;resizable=0;points=[];autosize=1;strokeColor=none;fillColor=none;fontStyle=0" vertex="1" parent="1">
                    <mxGeometry x="772" y="530" width="100" height="40" as="geometry"/>
                </mxCell>
                <mxCell id="18" value="" style="whiteSpace=wrap;html=1;opacity=50;" vertex="1" parent="1">
                    <mxGeometry x="1002" y="525" width="280" height="120" as="geometry"/>
                </mxCell>
                <mxCell id="19" value="IP_C1&lt;br&gt;10.228.150.92" style="text;html=1;align=center;verticalAlign=middle;resizable=0;points=[];autosize=1;strokeColor=none;fillColor=none;" vertex="1" parent="1">
                    <mxGeometry x="1017" y="565" width="100" height="40" as="geometry"/>
                </mxCell>
                <mxCell id="20" value="IP_C2&lt;br&gt;10.228.150.1" style="text;html=1;align=center;verticalAlign=middle;resizable=0;points=[];autosize=1;strokeColor=none;fillColor=none;" vertex="1" parent="1">
                    <mxGeometry x="1167" y="565" width="100" height="40" as="geometry"/>
                </mxCell>
                <mxCell id="21" value="IP_C0&lt;br&gt;10.228.150.0/24" style="text;html=1;align=center;verticalAlign=middle;resizable=0;points=[];autosize=1;strokeColor=none;fillColor=none;fontStyle=0" vertex="1" parent="1">
                    <mxGeometry x="1087" y="530" width="110" height="40" as="geometry"/>
                </mxCell>
                <mxCell id="22" value="LXD Bridge" style="text;strokeColor=none;align=center;fillColor=none;html=1;verticalAlign=middle;whiteSpace=wrap;rounded=0;" vertex="1" parent="1">
                    <mxGeometry x="427" y="495" width="150" height="30" as="geometry"/>
                </mxCell>
                <mxCell id="23" value="LTE Network" style="text;strokeColor=none;align=center;fillColor=none;html=1;verticalAlign=middle;whiteSpace=wrap;rounded=0;" vertex="1" parent="1">
                    <mxGeometry x="747" y="495" width="150" height="30" as="geometry"/>
                </mxCell>
                <mxCell id="24" value="LXD Bridge" style="text;strokeColor=none;align=center;fillColor=none;html=1;verticalAlign=middle;whiteSpace=wrap;rounded=0;" vertex="1" parent="1">
                    <mxGeometry x="1067" y="495" width="150" height="30" as="geometry"/>
                </mxCell>
                <mxCell id="26" value="Container" style="text;strokeColor=none;align=center;fillColor=none;html=1;verticalAlign=middle;whiteSpace=wrap;rounded=0;opacity=50;" vertex="1" parent="1">
                    <mxGeometry x="629" y="650" width="60" height="30" as="geometry"/>
                </mxCell>
                <mxCell id="28" value="Container" style="text;strokeColor=none;align=center;fillColor=none;html=1;verticalAlign=middle;whiteSpace=wrap;rounded=0;opacity=50;" vertex="1" parent="1">
                    <mxGeometry x="949" y="650" width="60" height="30" as="geometry"/>
                </mxCell>
                <mxCell id="31" value="GCS" style="text;strokeColor=none;align=center;fillColor=none;html=1;verticalAlign=middle;whiteSpace=wrap;rounded=0;opacity=50;" vertex="1" parent="1">
                    <mxGeometry x="380" y="650" width="60" height="30" as="geometry"/>
                </mxCell>
                <mxCell id="32" value="UAV" style="text;strokeColor=none;align=center;fillColor=none;html=1;verticalAlign=middle;whiteSpace=wrap;rounded=0;opacity=50;" vertex="1" parent="1">
                    <mxGeometry x="1207" y="649" width="60" height="30" as="geometry"/>
                </mxCell>
            </root>
        </mxGraphModel>
    </diagram>
</mxfile>